<svg xmlns="http://www.w3.org/2000/svg" xmlns:xlink="http://www.w3.org/1999/xlink" width="500" zoomAndPan="magnify" viewBox="0 0 375 374.999991" height="500" preserveAspectRatio="xMidYMid meet" version="1.0"><defs><clipPath id="0ef1c3deec"><path d="M 0 61 L 179 61 L 179 353.070312 L 0 353.070312 Z M 0 61 " clip-rule="nonzero"/></clipPath><clipPath id="86fa390ecb"><path d="M 375.023438 187.5 C 375.023438 291.066406 291.066406 375.023438 187.5 375.023438 C 83.933594 375.023438 -0.0234375 291.066406 -0.0234375 187.5 C -0.0234375 83.933594 83.933594 -0.0234375 187.5 -0.0234375 C 291.066406 -0.0234375 375.023438 83.933594 375.023438 187.5 Z M 375.023438 187.5 " clip-rule="nonzero"/></clipPath><clipPath id="ddae4643d5"><path d="M 203 41 L 375 41 L 375 303 L 203 303 Z M 203 41 " clip-rule="nonzero"/></clipPath><clipPath id="44cbedbb38"><path d="M 375.023438 187.5 C 375.023438 291.066406 291.066406 375.023438 187.5 375.023438 C 83.933594 375.023438 -0.0234375 291.066406 -0.0234375 187.5 C -0.0234375 83.933594 83.933594 -0.0234375 187.5 -0.0234375 C 291.066406 -0.0234375 375.023438 83.933594 375.023438 187.5 Z M 375.023438 187.5 " clip-rule="nonzero"/></clipPath><clipPath id="dfbad859bb"><path d="M 322.945312 246 L 375 246 L 375 303 L 322.945312 303 Z M 322.945312 246 " clip-rule="nonzero"/></clipPath><clipPath id="9b43e1a3b9"><path d="M 375.023438 187.5 C 375.023438 291.066406 291.066406 375.023438 187.5 375.023438 C 83.933594 375.023438 -0.0234375 291.066406 -0.0234375 187.5 C -0.0234375 83.933594 83.933594 -0.0234375 187.5 -0.0234375 C 291.066406 -0.0234375 375.023438 83.933594 375.023438 187.5 Z M 375.023438 187.5 " clip-rule="nonzero"/></clipPath></defs><path fill="#38bff3" d="M 375.023438 187.5 C 375.023438 291.066406 291.066406 375.023438 187.5 375.023438 C 83.933594 375.023438 -0.0234375 291.066406 -0.0234375 187.5 C -0.0234375 83.933594 83.933594 -0.0234375 187.5 -0.0234375 C 291.066406 -0.0234375 375.023438 83.933594 375.023438 187.5 " fill-opacity="1" fill-rule="nonzero"/><path fill="#229aca" d="M 311.15625 46.589844 C 333.144531 71.019531 346.671875 103.15625 346.671875 137.988281 C 346.671875 212.902344 284.15625 275.410156 209.242188 275.410156 C 134.335938 275.410156 71.824219 212.902344 71.824219 137.988281 C 71.824219 64.976562 131.207031 3.773438 203.566406 0.710938 C 198.261719 0.257812 192.917969 -0.0234375 187.5 -0.0234375 C 83.933594 -0.0234375 -0.0234375 83.933594 -0.0234375 187.5 C -0.0234375 291.066406 83.933594 375.023438 187.5 375.023438 C 291.066406 375.023438 375.023438 291.066406 375.023438 187.5 C 375.023438 131.324219 350.285156 80.957031 311.15625 46.589844 " fill-opacity="1" fill-rule="nonzero"/><g clip-path="url(#0ef1c3deec)"><g clip-path="url(#86fa390ecb)"><path fill="#b2de59" d="M 121.09375 353.03125 C 121.09375 353.03125 118.632812 324.222656 137.09375 310.6875 C 155.558594 297.144531 161.714844 270.058594 161.714844 270.058594 C 161.714844 270.058594 178.949219 263.90625 174.027344 251.59375 C 174.027344 251.59375 180.59375 247.078125 177.71875 242.15625 C 174.847656 237.230469 160.078125 235.183594 153.921875 224.511719 C 147.769531 213.847656 131.765625 208.507812 131.765625 208.507812 C 131.765625 208.507812 121.710938 208.203125 118.632812 205.429688 C 115.554688 202.664062 112.167969 202.046875 109.707031 205.429688 C 107.246094 208.820312 104.476562 211.898438 102.628906 210.355469 C 100.785156 208.820312 96.472656 210.972656 96.472656 205.429688 C 96.472656 199.894531 96.472656 195.894531 88.46875 195.582031 C 80.46875 195.277344 91.859375 185.429688 90.9375 183.890625 C 90.011719 182.351562 76.472656 200.816406 71.546875 183.890625 C 66.621094 166.964844 81.699219 167.269531 83.855469 168.808594 C 86.007812 170.347656 82.628906 163.582031 87.851562 165.730469 C 93.085938 167.886719 95.242188 173.734375 98.015625 176.507812 C 100.785156 179.273438 102.324219 174.65625 100.167969 166.964844 C 98.015625 159.269531 99.550781 159.886719 104.78125 155.578125 C 110.015625 151.265625 111.859375 151.882812 111.246094 144.804688 C 110.628906 137.730469 120.789062 132.804688 126.941406 135.882812 C 133.097656 138.957031 135.046875 137.113281 135.046875 129.726562 C 135.046875 122.339844 120.679688 127.675781 128.066406 119.878906 C 135.457031 112.082031 139.152344 118.652344 136.6875 109.617188 C 134.226562 100.59375 126.839844 102.644531 126.839844 96.078125 C 126.839844 89.515625 117.8125 98.542969 116.988281 92.800781 C 116.167969 87.054688 107.136719 88.285156 104.265625 89.105469 C 101.394531 89.925781 105.914062 110.03125 103.863281 110.851562 C 101.808594 111.675781 98.9375 116.183594 90.320312 105.105469 C 81.699219 94.027344 71.445312 94.253906 80.46875 88.394531 C 89.496094 82.539062 92.367188 80.894531 96.066406 84.589844 C 99.757812 88.285156 100.167969 76.796875 99.347656 75.152344 C 98.523438 73.511719 104.265625 69.410156 103.863281 66.535156 C 103.453125 63.664062 88.265625 71.464844 84.578125 68.585938 C 80.882812 65.714844 71.4375 70.640625 64.878906 69.816406 C 58.3125 68.996094 50.925781 80.488281 42.3125 73.101562 C 33.691406 65.714844 28.769531 62.84375 19.332031 63.664062 C 9.894531 64.488281 4.554688 70.777344 -10.621094 63.527344 C -25.804688 56.277344 -36.882812 67.761719 -39.347656 71.457031 C -41.808594 75.152344 -40.164062 74.742188 -42.21875 78.027344 C -44.269531 81.304688 -31.960938 81.304688 -35.246094 85 C -38.523438 88.695312 -39.757812 83.765625 -38.113281 90.339844 C -36.46875 96.898438 -34.421875 98.132812 -29.910156 100.179688 C -25.394531 102.234375 -28.265625 102.234375 -34.011719 105.929688 C -39.757812 109.617188 -24.984375 114.953125 -8.15625 87.460938 C -8.15625 87.460938 -7.753906 91.566406 -4.46875 92.800781 C -1.179688 94.027344 6.199219 96.898438 6.199219 96.898438 C 6.199219 96.898438 9.894531 99.363281 12.355469 103.464844 C 14.816406 107.566406 13.996094 116.597656 18.097656 120.289062 C 22.203125 123.984375 32.871094 128.90625 30.414062 134.242188 C 27.945312 139.574219 27.53125 153.113281 36.566406 158.449219 C 45.597656 163.789062 43.132812 169.53125 46.003906 175.6875 C 48.875 181.839844 57.902344 183.480469 59.953125 187.996094 C 62.007812 192.511719 64.144531 192.097656 67.992188 194.972656 C 71.855469 197.84375 78.421875 197.023438 78.421875 197.023438 C 78.421875 197.023438 80.882812 196.613281 83.753906 202.355469 C 86.625 208.101562 91.136719 209.332031 91.136719 209.332031 C 91.136719 209.332031 96.882812 220.410156 103.453125 217.945312 C 110.015625 215.484375 103.863281 221.636719 101.808594 229.851562 C 99.757812 238.054688 95.242188 237.644531 100.167969 244.207031 C 105.089844 250.773438 108.375 254.058594 109.605469 263.082031 C 110.832031 272.117188 117.402344 270.882812 117.402344 270.882812 C 117.402344 270.882812 119.042969 295.5 112.886719 306.167969 C 106.734375 316.84375 110.421875 330.710938 109.195312 341.871094 C 107.964844 353.03125 121.09375 353.03125 121.09375 353.03125 " fill-opacity="1" fill-rule="nonzero"/></g></g><g clip-path="url(#ddae4643d5)"><g clip-path="url(#44cbedbb38)"><path fill="#b2de59" d="M 260.199219 300.429688 C 260.199219 300.429688 275.792969 310.273438 283.171875 290.988281 C 290.5625 271.703125 284.816406 262.265625 293.433594 259.394531 C 302.046875 256.523438 293.433594 248.722656 295.488281 239.285156 C 297.539062 229.851562 307.796875 234.773438 311.078125 224.105469 C 314.363281 213.433594 325.847656 203.585938 315.589844 203.175781 C 305.335938 202.765625 311.902344 213.085938 305.742188 207.101562 C 299.585938 201.125 289.980469 183.890625 289.980469 183.890625 L 288.101562 169.941406 C 288.101562 169.941406 295.5 179.898438 297.539062 189.632812 C 299.574219 199.375 306.972656 202.355469 306.972656 202.355469 C 306.972656 202.355469 320.105469 196.613281 322.15625 193.738281 C 324.210938 190.867188 332.824219 180.195312 322.15625 178.96875 C 311.488281 177.734375 300.820312 171.578125 309.023438 167.886719 C 317.234375 164.191406 321.746094 174.453125 321.746094 174.453125 C 321.746094 174.453125 327.082031 169.53125 330.363281 174.042969 C 333.648438 178.558594 340.207031 176.914062 343.082031 179.785156 C 345.957031 182.660156 349.238281 190.867188 349.238281 190.867188 C 349.238281 190.867188 350.878906 213.023438 363.601562 214.667969 C 376.320312 216.308594 359.90625 201.535156 367.292969 197.433594 C 374.679688 193.328125 380.015625 186.925781 382.070312 185.613281 C 384.121094 184.300781 380.835938 192.917969 386.988281 197.023438 C 393.144531 201.125 399.296875 207.101562 399.296875 207.101562 C 399.296875 207.101562 404.636719 205.636719 405.867188 210.972656 C 407.097656 216.308594 413.25 199.894531 412.839844 197.84375 C 412.429688 195.792969 398.476562 190.046875 407.914062 187.996094 C 417.351562 185.945312 428.433594 179.378906 432.941406 175.6875 C 437.457031 171.992188 429.253906 152.296875 428.84375 148.601562 C 428.433594 144.914062 437.871094 142.859375 436.636719 150.648438 C 435.40625 158.449219 440.742188 153.941406 439.921875 158.449219 C 439.101562 162.960938 452.640625 158.863281 444.023438 145.320312 C 435.40625 131.773438 451.414062 134.242188 453.050781 135.882812 C 454.695312 137.527344 469.46875 121.109375 461.671875 113.3125 C 453.871094 105.519531 456.335938 102.644531 467.003906 98.953125 C 477.667969 95.261719 482.597656 89.105469 482.597656 93.210938 C 482.597656 97.3125 492.035156 88.4375 498.597656 91.855469 C 505.164062 95.261719 483.417969 107.980469 489.164062 119.0625 C 494.902344 130.136719 499.421875 105.105469 503.519531 99.363281 C 507.625 93.617188 512.554688 95.261719 515.835938 94.851562 C 519.117188 94.4375 519.9375 91.15625 526.097656 88.285156 C 532.25 85.414062 523.628906 78.4375 531.425781 80.488281 C 539.21875 82.539062 542.46875 83.4375 544.949219 80.113281 C 547.429688 76.796875 515.832031 66.949219 510.496094 69.410156 C 505.164062 71.871094 486.195312 63.613281 481.726562 61.179688 C 477.261719 58.738281 438.28125 65.714844 436.234375 64.488281 C 434.175781 63.253906 428.847656 54.640625 419.820312 49.710938 C 410.78125 44.789062 412.429688 40.273438 399.296875 41.917969 C 386.167969 43.558594 366.066406 57.101562 360.726562 57.921875 C 355.394531 58.738281 351.285156 52.179688 345.546875 53.816406 C 339.804688 55.457031 339.390625 63.253906 334.058594 63.253906 C 328.722656 63.253906 328.308594 66.125 314.773438 69.410156 C 301.230469 72.691406 292.621094 82.953125 288.925781 81.308594 C 285.238281 79.667969 261.027344 110.03125 256.921875 111.265625 C 252.816406 112.496094 236.402344 116.597656 233.53125 120.703125 C 230.660156 124.804688 232.300781 128.90625 226.554688 127.265625 C 220.8125 125.628906 237.632812 134.652344 222.867188 136.292969 C 208.09375 137.9375 215.066406 144.496094 215.066406 148.601562 C 215.066406 152.710938 230.242188 149.835938 232.292969 149.011719 C 234.347656 148.191406 235.988281 134.652344 242.550781 137.113281 C 249.117188 139.574219 254.863281 138.753906 254.863281 138.753906 C 254.863281 138.753906 260.609375 137.9375 264.710938 141.625 C 268.8125 145.320312 267.988281 151.882812 271.273438 151.882812 C 274.558594 151.882812 276.199219 149.835938 277.839844 151.0625 C 279.484375 152.296875 293.84375 151.472656 292.207031 155.167969 C 290.5625 158.863281 275.375 164.605469 265.121094 161.730469 C 265.121094 161.730469 262.660156 166.660156 256.09375 161.730469 C 249.527344 156.808594 247.03125 151.882812 248.285156 151.472656 C 249.527344 151.0625 229.417969 153.9375 224.5 154.757812 C 219.574219 155.578125 218.753906 165.015625 211.78125 170.347656 C 204.800781 175.6875 201.929688 194.148438 203.570312 199.070312 C 205.214844 204 208.492188 206.871094 212.601562 217.128906 C 216.703125 227.386719 222.855469 217.128906 227.371094 217.539062 C 231.886719 217.945312 243.371094 211.386719 244.601562 218.769531 C 245.832031 226.15625 249.527344 231.488281 250.761719 235.59375 C 251.988281 239.695312 250.761719 246.265625 250.351562 255.289062 C 249.941406 264.316406 256.914062 274.164062 257.328125 277.859375 C 257.734375 281.550781 254.449219 291.402344 260.199219 300.429688 " fill-opacity="1" fill-rule="nonzero"/></g></g><g clip-path="url(#dfbad859bb)"><g clip-path="url(#9b43e1a3b9)"><path fill="#b2de59" d="M 373.175781 302.9375 C 373.175781 302.9375 369.480469 298.019531 356.558594 289.402344 C 343.632812 280.78125 338.707031 289.402344 331.933594 289.402344 C 325.164062 289.402344 318.394531 270.933594 327.011719 264.167969 C 335.628906 257.394531 338.707031 262.316406 343.632812 253.085938 C 348.554688 243.851562 353.476562 246.933594 357.785156 248.777344 C 362.097656 250.625 363.941406 257.394531 368.253906 256.164062 C 372.554688 254.929688 376.867188 253.703125 380.558594 261.085938 C 384.253906 268.472656 389.792969 262.769531 389.792969 274.851562 C 389.792969 286.9375 382.40625 302.9375 382.40625 302.9375 L 373.175781 302.9375 " fill-opacity="1" fill-rule="nonzero"/></g></g></svg>